M48
;DRILL file {KiCad 4.0.7} date Thursday, 23 '23e' November '23e' 2017, 18:46:58
;FORMAT={-:-/ absolute / metric / decimal}
FMAT,2
METRIC,TZ
T1C1.500
T2C2.300
T3C2.500
%
G90
G05
M71
T1
X125.944Y-42.872
X130.944Y-42.872
X161.076Y-42.792
X166.076Y-42.792
T2
X95.762Y-76.391
X106.362Y-76.391
X107.696Y-133.604
X118.296Y-133.604
X124.02Y-133.604
X134.62Y-133.604
X140.626Y-133.604
X151.226Y-133.604
X157.548Y-133.604
X168.148Y-133.604
X173.556Y-133.604
X184.156Y-133.604
T3
X120.944Y-47.872
X135.944Y-47.872
X156.076Y-47.792
X171.076Y-47.792
T0
M30
