M48
;DRILL file {KiCad 4.0.7} date Saturday, 16 '16e' December '16e' 2017, 14:21:14
;FORMAT={-:-/ absolute / metric / decimal}
FMAT,2
METRIC,TZ
T1C0.400
T2C0.762
T3C0.800
T4C1.000
T5C1.100
T6C1.200
T7C1.500
T8C2.100
%
G90
G05
M71
T1
X128.Y-61.5
X152.273Y-87.63
X153.162Y-87.63
X154.178Y-87.63
X185.801Y-93.281
T2
X121.941Y-71.649
X121.941Y-74.189
X121.941Y-76.729
X121.941Y-79.269
X121.941Y-81.809
X121.941Y-84.349
X121.941Y-86.889
X121.941Y-91.969
X121.941Y-94.509
X121.941Y-97.049
X121.941Y-99.589
X121.941Y-102.129
X121.941Y-104.669
X128.016Y-114.507
X128.016Y-119.507
X133.016Y-114.507
X133.016Y-119.507
X157.266Y-114.507
X157.266Y-119.507
X162.266Y-114.507
X162.266Y-119.507
X170.201Y-64.029
X170.201Y-66.569
X170.201Y-69.109
X170.201Y-71.649
X170.201Y-74.189
X170.201Y-76.729
X170.201Y-79.269
X170.201Y-81.809
X170.201Y-86.889
X170.201Y-89.429
X170.201Y-91.969
X170.201Y-94.509
X170.201Y-97.049
X170.201Y-99.589
X170.201Y-102.129
X170.201Y-104.669
X186.389Y-114.507
X186.389Y-119.507
X191.389Y-114.507
X191.389Y-119.507
T3
X97.091Y-88.201
X97.091Y-92.011
X97.091Y-95.822
X97.091Y-99.631
X97.98Y-109.22
X97.997Y-105.283
X100.393Y-114.236
X100.393Y-116.736
X102.98Y-109.22
X102.997Y-105.283
X104.712Y-88.201
X104.712Y-92.011
X104.712Y-95.822
X104.712Y-99.631
X108.14Y-88.201
X108.14Y-92.011
X108.14Y-95.822
X108.14Y-99.631
X108.775Y-72.39
X108.775Y-74.93
X108.775Y-77.47
X108.775Y-80.01
X108.775Y-105.283
X108.775Y-109.22
X111.188Y-114.236
X111.188Y-116.736
X113.775Y-105.283
X113.775Y-109.22
X115.76Y-88.201
X115.76Y-92.011
X115.76Y-95.822
X115.76Y-99.631
X116.395Y-72.39
X116.395Y-74.93
X116.395Y-77.47
X116.395Y-80.01
X126.173Y-63.449
X126.173Y-67.894
X126.173Y-70.434
X126.173Y-72.974
X126.173Y-75.514
X127.Y-91.44
X127.Y-106.68
X133.793Y-63.449
X133.793Y-67.894
X133.793Y-70.434
X133.793Y-72.974
X133.793Y-75.514
X134.62Y-91.44
X134.62Y-106.68
X141.681Y-63.349
X141.681Y-69.382
X141.711Y-75.414
X141.986Y-91.44
X141.986Y-106.68
X149.301Y-63.349
X149.301Y-69.382
X149.331Y-75.414
X149.606Y-91.44
X149.606Y-106.68
X156.972Y-91.44
X157.48Y-106.68
X157.784Y-69.349
X157.784Y-75.318
X164.592Y-91.44
X165.1Y-106.68
X165.404Y-69.349
X165.404Y-75.318
X175.451Y-84.391
X175.451Y-88.265
X175.451Y-92.138
X175.451Y-96.012
X175.451Y-99.885
X175.451Y-103.759
X183.07Y-84.391
X183.07Y-88.265
X183.07Y-92.138
X183.07Y-96.012
X183.07Y-99.885
X183.07Y-103.759
X191.088Y-84.264
X191.088Y-89.138
X191.088Y-94.012
X191.088Y-98.885
X191.088Y-103.759
X196.088Y-84.264
X196.088Y-89.138
X196.088Y-94.012
X196.088Y-98.885
X196.088Y-103.759
T4
X127.334Y-80.493
X127.334Y-83.693
X128.096Y-97.536
X128.096Y-100.736
X129.834Y-80.493
X129.834Y-83.693
X130.596Y-97.536
X130.596Y-100.736
X132.334Y-80.493
X132.334Y-83.693
X133.096Y-97.536
X133.096Y-100.736
X142.24Y-43.183
X142.24Y-45.723
X142.24Y-48.263
X143.209Y-80.493
X143.209Y-83.693
X143.336Y-97.384
X143.336Y-100.584
X145.709Y-80.493
X145.709Y-83.693
X145.836Y-97.384
X145.836Y-100.584
X148.209Y-80.493
X148.209Y-83.693
X148.336Y-97.384
X148.336Y-100.584
X149.86Y-43.183
X149.86Y-45.723
X149.86Y-48.263
X158.576Y-97.384
X158.576Y-100.584
X159.084Y-80.493
X159.084Y-83.693
X161.076Y-97.384
X161.076Y-100.584
X161.584Y-80.493
X161.584Y-83.693
X163.576Y-97.384
X163.576Y-100.584
X164.084Y-80.493
X164.084Y-83.693
X174.498Y-72.517
X174.498Y-75.017
X174.498Y-77.517
X177.698Y-72.517
X177.698Y-75.017
X177.698Y-77.517
X184.087Y-72.517
X184.087Y-75.017
X184.087Y-77.517
X187.286Y-72.517
X187.286Y-75.017
X187.286Y-77.517
X193.587Y-72.47
X193.587Y-74.97
X193.587Y-77.47
X196.786Y-72.47
X196.786Y-74.97
X196.786Y-77.47
T5
X142.9Y-53.9
X142.9Y-58.4
X149.4Y-53.9
X149.4Y-58.4
T6
X97.6Y-83.4
X100.1Y-83.4
X102.6Y-83.4
X110.496Y-140.604
X112.996Y-140.604
X115.496Y-140.604
X126.82Y-140.604
X129.32Y-140.604
X131.82Y-140.604
X143.426Y-140.604
X145.926Y-140.604
X148.426Y-140.604
X160.348Y-140.604
X162.848Y-140.604
X165.348Y-140.604
X176.356Y-140.604
X178.856Y-140.604
X181.356Y-140.604
T7
X120.944Y-52.872
X123.444Y-55.372
X128.444Y-52.872
X133.444Y-55.372
X135.944Y-52.872
X156.076Y-52.792
X158.576Y-55.292
X163.576Y-52.792
X168.576Y-55.292
X171.076Y-52.792
T8
X97.922Y-52.07
X97.922Y-58.42
X97.922Y-64.77
X114.422Y-52.07
X114.422Y-58.42
X114.422Y-64.77
X178.694Y-52.07
X178.694Y-58.42
X178.694Y-64.77
X195.194Y-52.07
X195.194Y-58.42
X195.194Y-64.77
T0
M30
